<?xml version="1.0" encoding="utf-8"?>
<!-- Generator: Adobe Illustrator 23.0.3, SVG Export Plug-In . SVG Version: 6.00 Build 0)  -->
<svg version="1.1" id="Laag_1" xmlns="http://www.w3.org/2000/svg" xmlns:xlink="http://www.w3.org/1999/xlink" x="0px" y="0px"
	 viewBox="0 0 595.28 841.89" style="enable-background:new 0 0 595.28 841.89;" xml:space="preserve">
<style type="text/css">
	.Gebogen_x0020_groen{fill:url(#SVGID_1_);stroke:#FFFFFF;stroke-width:0.25;stroke-miterlimit:1;}
	.st0{fill:#002F87;}
	.st1{fill:none;stroke:#002F87;stroke-width:3;}
	.st2{fill:#002F87;stroke:#002F87;stroke-width:3;}
</style>
<linearGradient id="SVGID_1_" gradientUnits="userSpaceOnUse" x1="0" y1="841.8896" x2="0.7071" y2="841.1825">
	<stop  offset="0" style="stop-color:#1DA238"/>
	<stop  offset="0.9831" style="stop-color:#24391D"/>
</linearGradient>
<g>
	<path class="st0" d="M274.67,403.36c-0.78-0.27-0.8-0.76-0.05-1.09c0,0,4.13-1.83,5.1-5.24c0.97-3.41-11.92-13.14-13.21-15.93
		c-1.29-2.79,4.53-4.96,5.18-7.12c0.65-2.17-6.58-7.08-6.58-7.08c-0.68-0.46-1.91-0.84-2.73-0.84h-41.81
		c-0.82,0-2.05,0.38-2.73,0.84c0,0-7.22,4.91-6.58,7.08c0.65,2.17,6.47,4.34,5.18,7.12c-1.29,2.79-14.18,12.52-13.21,15.93
		c0.97,3.41,5.09,5.24,5.09,5.24c0.75,0.33,0.73,0.82-0.05,1.09c0,0-5.37,1.84-5.37,4.32c0,2.48,0,6.43,0,6.43
		c0,0.82,0.47,1.98,1.05,2.57c0,0,4.99,5.11,37.52,4.7c32.53,0.4,37.52-4.7,37.52-4.7c0.58-0.59,1.05-1.74,1.05-2.57
		c0,0,0-3.96,0-6.43C280.04,405.2,274.67,403.36,274.67,403.36z"/>
	<path class="st1" d="M274.67,403.36c-0.78-0.27-0.8-0.76-0.05-1.09c0,0,4.13-1.83,5.1-5.24c0.97-3.41-11.92-13.14-13.21-15.93
		c-1.29-2.79,4.53-4.96,5.18-7.12c0.65-2.17-6.58-7.08-6.58-7.08c-0.68-0.46-1.91-0.84-2.73-0.84h-41.81
		c-0.82,0-2.05,0.38-2.73,0.84c0,0-7.22,4.91-6.58,7.08c0.65,2.17,6.47,4.34,5.18,7.12c-1.29,2.79-14.18,12.52-13.21,15.93
		c0.97,3.41,5.09,5.24,5.09,5.24c0.75,0.33,0.73,0.82-0.05,1.09c0,0-5.37,1.84-5.37,4.32c0,2.48,0,6.43,0,6.43
		c0,0.82,0.47,1.98,1.05,2.57c0,0,4.99,5.11,37.52,4.7c32.53,0.4,37.52-4.7,37.52-4.7c0.58-0.59,1.05-1.74,1.05-2.57
		c0,0,0-3.96,0-6.43C280.04,405.2,274.67,403.36,274.67,403.36z"/>
</g>
<path class="st2" d="M296.49,279.61c0,0-18.13-12.56-23.49-19.55c-5.23-6.83-10.58-11.08-10.58-11.08l-11.68-0.34l1.13-20.82
	c0,0-21.83,10.85-17.89,20.98c0,0-5.04,1.5-10.34,4.11c-4.15,1.81-9.25,4.79-14.01,9.6c-10.63,10.74-18.22,28.24-11.5,59.27
	c4.11,18.98,10.46,29.64,15.63,38.18c2.71,0.1,8.61-0.02,15.56,0c-7.94-10.21-16.58-28.93-20.47-49.67
	c-2.59-13.82,1.84-26.49,1.84-26.49c5.55,38.08,17.9,50.89,23.85,60.61c4.37,7.14,10.31,13.85,11.85,15.54
	c11.49-0.03,21.45,0,21.45,0s16.73-16.44,9.86-23.63c-9.28-9.7-13.38-13.72-21.74-27.12c-3.54-5.67-8.02-15.23-5.49-23.4
	c0.24-0.39,0.51-0.64,0.83-0.71c0,0,11.18,0.77,21.39,6.5c8.68,4.87,10.34,9.62,15.41,6.81c5.07-2.82,2.06-5.32,2.06-5.32
	s3.18,2.4,6-0.41C298.94,289.87,296.49,279.61,296.49,279.61z"/>
</svg>
